<svg xmlns="http://www.w3.org/2000/svg" width="314.93" height="274.69" viewBox="0 0 314.93 274.69">
  <title>niner-logo-vector</title>
  <g id="cb5322fb-227e-4a55-9a83-dd9f8ccdac7e" data-name="Layer 2">
    <g id="423c86a1-5704-41a9-afed-3573d84d84fe" data-name="Layer 1">
      <g>
        <rect width="314.93" height="274.69" fill="#ce0e2d"/>
        <g>
          <path d="M220,53.17c35.08-1.56,62.1,6.76,53.86,27.53-10.06,25.38-87.54,76.25-168.07,98H83C155.54,146,220.3,102.73,230.51,77.06c1.32-3.35,6.37-16.07-18.89-15-37.9,1.7-117.4,44.11-126.85,67.88-1,2.69-4.21,12.36,16.83,11.43,11.23-.51,29-5.24,32.16-6.38.72,0,14.8-4.29,16.21-4.35,2.8-.12,5.07,1.08,4.41,2.76-1.72,4.36-41.63,16.33-69.69,17.6-13.32.61-52-1-44-21C52.37,100.53,142.81,56.64,220,53.17" fill="#fff"/>
          <path d="M92.68,208.06h-3c-1.38,0-1.63-1.35-.52-2.93l8.1-11.86c2.25-3.28,2.19-7.73-1.65-7.73H59.1L57.48,188h2.35c1.65,0,2.61,1.08,1.51,2.68L47.77,210.44H63.66l1.65-2.38H62.37c-1.39,0-1.64-1.35-.55-2.93C66.7,198,66.19,198.57,73.41,188h13.8c1.64,0,2.59,1.1,1.5,2.68-13.33,19.52,3.56-5.34-9.35,13.82-1.36,1.87-1.52,6,1.5,6l10.13,0Z" fill="#fff"/>
          <path d="M125.49,185.48h-16l-1.6,2.38h2.34c1.64,0,2.62,1.1,1.52,2.68l-13.56,19.9,15.83,0,1.59-2.35h-2.91c-1.41,0-1.68-1.35-.57-2.94Z" fill="#fff"/>
          <path d="M166.2,208.07h-2.95c-1.37,0-1.63-1.35-.52-2.93l8.09-11.86c2.24-3.28,2.21-7.73-1.61-7.73q-18.27,0-36.58,0L131,188h2.35c1.65,0,2.62,1.08,1.51,2.67L121.3,210.44h15.87l1.67-2.38h-3c-1.36,0-1.62-1.33-.5-2.93,4.84-7.17,4.32-6.56,11.56-17.15h13.79c1.65,0,2.61,1.1,1.5,2.68-13.33,19.52,3.57-5.34-9.33,13.82-1.35,1.87-1.54,6,1.49,6H164.5Z" fill="#fff"/>
          <path d="M219.88,193.27c2.25-3.28,2.25-7.73-1.58-7.73H193.65c-3.83,0-9.67,4.45-11.94,7.73-6,8.75-1.74,2.31-7.65,11.14-1.28,1.94-1.4,6,1.62,6,8.93.05,17.88,0,26.86,0,3,0,8.3-4,9.67-5.94l2.09-3.06H204l-2.56,3.78c-1,1.51-3.13,2.87-4.55,2.86H184.59c-1.42,0-1.62-1.35-.56-2.94,3.16-4.68,4-6,4.76-7h27.74Zm-8.6-2.61,0,0c-.62.95-2,3-3.27,4.8H190.61l3.29-4.8a6.86,6.86,0,0,1,5-2.69c7.31.06,3.6,0,10.83,0,1.6,0,2.58,1.15,1.54,2.73" fill="#fff"/>
          <path d="M266.75,193.27c2.18-3.28,2.35-7.73-1.47-7.7-12.32,0-24.53,0-36.73,0L226.94,188h2.33c1.64,0,2.6,1.1,1.51,2.68l-13.49,19.78,15.81,0,1.66-2.35h-3c-1.37,0-1.57-1.33-.53-2.94,2.27-3.34,9.06-13.07,11.7-17.14h13.69c1.63,0,2.55,1.1,1.49,2.67-1.94,2.92-4.14,6.08-4.14,6.08s10.48-.06,10.48-.06Z" fill="#fff"/>
        </g>
      </g>
    </g>
  </g>
</svg>
